<?xml version="1.0" encoding="UTF-8"?>
<svg width="100" height="100" viewBox="0 0 100 100" xmlns="http://www.w3.org/2000/svg">
    <rect width="100" height="100" fill="#F7DF1E"/>
    <path d="M30 85L37.5 80.8C39.2 83.8 40.8 86.2 44.2 86.2C47.5 86.2 49.5 84.9 49.5 79.5V46.8H58.5V79.6C58.5 89 53.2 93.2 44.7 93.2C37 93.2 32.5 89.5 30 85" fill="#000000"/>
    <path d="M64.3 84.2L71.8 80.2C74.3 84.2 77.5 87.2 82.8 87.2C87.3 87.2 90.3 84.9 90.3 81.7C90.3 77.9 87.3 76.6 82.3 74.4L79.6 73.2C71.8 69.9 66.8 65.7 66.8 56.9C66.8 48.8 73 42.8 82.3 42.8C89 42.8 93.8 45.1 97.3 51.1L90.1 55.4C88.1 51.9 85.9 50.6 82.3 50.6C78.6 50.6 76.3 52.9 76.3 55.4C76.3 58.5 78.6 59.8 83.3 61.8L86 63C95.1 66.9 100 71 100 80C100 89.7 92.3 95 83.1 95C74.1 95 67.6 90.2 64.3 84.2" fill="#000000"/>
</svg> 