<?xml version="1.0" encoding="UTF-8"?>
<svg width="100" height="100" viewBox="0 0 100 100" xmlns="http://www.w3.org/2000/svg">
    <path d="M93.89 47.37L82.64 25.86L55.11 25.86L51.47 31.95L45.83 31.95L42.19 25.86L14.66 25.86L3.41 47.37L14.66 68.88L42.19 68.88L45.83 62.79L51.47 62.79L55.11 68.88L82.64 68.88L93.89 47.37Z" fill="#222222"/>
    <path d="M55.11 25.86L82.64 25.86L73.77 43.73L46.24 43.73L55.11 25.86Z" fill="#FFFFFF"/>
    <path d="M42.19 68.88L14.66 68.88L23.53 51.01L51.06 51.01L42.19 68.88Z" fill="#FFFFFF"/>
    <path d="M23.53 43.73L14.66 25.86L42.19 25.86L51.06 43.73L23.53 43.73Z" fill="#FFFFFF"/>
</svg> 