<?xml version="1.0" encoding="UTF-8"?>
<svg width="100" height="100" viewBox="0 0 100 100" xmlns="http://www.w3.org/2000/svg">
    <path d="M50 5C25.15 5 5 25.15 5 50C5 74.85 25.15 95 50 95C74.85 95 95 74.85 95 50C95 25.15 74.85 5 50 5ZM50 15C69.33 15 85 30.67 85 50C85 69.33 69.33 85 50 85C30.67 85 15 69.33 15 50C15 30.67 30.67 15 50 15Z" fill="#000000"/>
    <path d="M65.5 35C61.91 31.41 57.16 29 52 29C41.51 29 33 37.51 33 48C33 58.49 41.51 67 52 67C57.16 67 61.91 64.59 65.5 61L60.5 56C58.29 58.21 55.29 59.5 52 59.5C45.65 59.5 40.5 54.35 40.5 48C40.5 41.65 45.65 36.5 52 36.5C55.29 36.5 58.29 37.79 60.5 40L65.5 35Z" fill="#000000"/>
</svg> 